<svg width="31" height="26" viewBox="0 0 31 26" fill="none" xmlns="http://www.w3.org/2000/svg">
<path d="M2.89646 2.58306L12.846 0.844597C13.1082 0.798771 13.3792 0.802535 13.6394 0.855614C13.8996 0.908693 14.1425 1.00975 14.3503 1.15144C14.5581 1.29313 14.7256 1.47189 14.8406 1.6747C14.9557 1.87752 15.0154 2.09929 15.0154 2.3239V2.84406H17.4373C17.951 2.84455 18.4434 3.01591 18.8067 3.32055C19.1699 3.62519 19.3742 4.03823 19.3748 4.46906V6.09406H18.406V4.46906C18.4057 4.25365 18.3036 4.04713 18.122 3.89481C17.9404 3.74249 17.6941 3.65681 17.4373 3.65656H15.0154V9.2111C15.0153 9.68565 14.8172 10.1452 14.4554 10.51C14.0935 10.8748 13.5908 11.1219 13.0345 11.2084L2.62243 12.8255C2.41701 12.8575 2.23322 12.9526 2.10711 13.0923C1.98101 13.232 1.92169 13.4062 1.94079 13.5807C1.9599 13.7552 2.05605 13.9174 2.21038 14.0355C2.36471 14.1536 2.56609 14.219 2.77501 14.2191H8.71854V15.0316H2.77501C2.29606 15.0311 1.83689 14.8713 1.49823 14.5873C1.15956 14.3032 0.969069 13.9181 0.968536 13.5164V4.57161C0.970416 4.10524 1.16279 3.6535 1.5136 3.29166C1.86441 2.92981 2.35247 2.67972 2.89646 2.58306ZM1.93729 12.1738C2.09716 12.1037 2.26867 12.0541 2.44608 12.0266L12.8581 10.4095C13.1919 10.3576 13.4935 10.2094 13.7106 9.99046C13.9277 9.77156 14.0466 9.49583 14.0467 9.2111V2.3239C14.0467 2.22007 14.019 2.11754 13.9659 2.02378C13.9127 1.93003 13.8352 1.84739 13.7392 1.78189C13.6431 1.71638 13.5309 1.66966 13.4106 1.64511C13.2903 1.62057 13.165 1.61881 13.0438 1.63999L3.09406 3.3785C2.76767 3.43649 2.47483 3.58654 2.26433 3.80364C2.05384 4.02074 1.93841 4.29179 1.93729 4.57161V12.1738Z" fill="white"/>
<path d="M29.732 25.1569C29.6435 25.1876 29.5461 25.1957 29.4522 25.18C29.3582 25.1643 29.2719 25.1257 29.2042 25.0688L28.0935 24.1373L26.9829 25.0688C26.8921 25.145 26.7689 25.1878 26.6404 25.1878C26.512 25.1878 26.3888 25.145 26.2979 25.0688L25.1873 24.1373L24.0767 25.0688C23.9858 25.145 23.8626 25.1878 23.7342 25.1878C23.6057 25.1878 23.4825 25.145 23.3917 25.0688L22.281 24.1373L21.1704 25.0688C21.0796 25.145 20.9564 25.1878 20.8279 25.1878C20.6995 25.1878 20.5763 25.145 20.4854 25.0688L19.3748 24.1373L18.2642 25.0688C18.1964 25.1256 18.1101 25.1643 18.0161 25.18C17.9222 25.1957 17.8248 25.1876 17.7363 25.1569C17.6478 25.1261 17.5722 25.074 17.5189 25.0072C17.4657 24.9404 17.4373 24.8619 17.4373 24.7816V21.5316H12.1092C11.4671 21.5309 10.8515 21.3167 10.3974 20.9359C9.94341 20.5551 9.68802 20.0388 9.68729 19.5003V12.1878H10.656V19.5003C10.656 19.8235 10.8091 20.1335 11.0816 20.3621C11.3542 20.5907 11.7238 20.7191 12.1092 20.7191C12.4946 20.7191 12.8642 20.5907 13.1367 20.3621C13.4092 20.1335 13.5623 19.8235 13.5623 19.5003V13.8128C13.563 13.2743 13.8184 12.758 14.2724 12.3772C14.7265 11.9964 15.3421 11.7822 15.9842 11.7816H21.3123V7.88732L20.3435 7.07482L19.2329 8.00634C19.1421 8.0825 19.0189 8.12529 18.8904 8.12529C18.762 8.12529 18.6388 8.0825 18.5479 8.00634L17.4373 7.07482L16.3267 8.00634L15.6417 7.43178L17.0948 6.21303C17.1856 6.13687 17.3088 6.09409 17.4373 6.09409C17.5657 6.09409 17.6889 6.13687 17.7798 6.21303L18.8904 7.14455L20.001 6.21303C20.0919 6.13685 20.2151 6.09406 20.3435 6.09406C20.472 6.09406 20.5952 6.13685 20.686 6.21303L22.1392 7.43178C22.23 7.50797 22.281 7.61131 22.281 7.71906V11.7816H27.6092C28.2513 11.7822 28.8669 11.9964 29.3209 12.3772C29.7749 12.758 30.0303 13.2743 30.031 13.8128V24.7816C30.031 24.8619 30.0026 24.9404 29.9494 25.0072C29.8962 25.074 29.8205 25.1261 29.732 25.1569ZM15.9842 12.5941C15.5989 12.5944 15.2295 12.7229 14.9571 12.9514C14.6847 13.1799 14.5315 13.4897 14.531 13.8128V19.5003C14.5316 19.9401 14.361 20.368 14.0453 20.7191H17.4373V13.8128C17.4369 13.4897 17.2836 13.1799 17.0112 12.9514C16.7388 12.7229 16.3694 12.5944 15.9842 12.5941ZM29.0623 13.8128C29.0619 13.4897 28.9086 13.1799 28.6362 12.9514C28.3638 12.7229 27.9944 12.5944 27.6092 12.5941H17.9205C18.2361 12.9452 18.4066 13.3731 18.406 13.8128V23.8008L19.0323 23.2755C19.1231 23.1994 19.2463 23.1566 19.3748 23.1566C19.5032 23.1566 19.6264 23.1994 19.7173 23.2755L20.8279 24.207L21.9385 23.2755C22.0294 23.1994 22.1526 23.1566 22.281 23.1566C22.4095 23.1566 22.5327 23.1994 22.6235 23.2755L23.7342 24.207L24.8448 23.2755C24.9356 23.1994 25.0588 23.1566 25.1873 23.1566C25.3157 23.1566 25.4389 23.1994 25.5298 23.2755L26.6404 24.207L27.751 23.2755C27.8419 23.1994 27.9651 23.1566 28.0935 23.1566C28.222 23.1566 28.3452 23.1994 28.436 23.2755L29.0623 23.8008V13.8128Z" fill="white"/>
<path d="M23.7342 20.3128C24.0216 20.3128 24.3025 20.3843 24.5415 20.5182C24.7805 20.6521 24.9667 20.8425 25.0767 21.0652C25.1867 21.2879 25.2155 21.5329 25.1594 21.7693C25.1033 22.0057 24.9649 22.2229 24.7617 22.3933C24.5585 22.5638 24.2996 22.6799 24.0177 22.7269C23.7358 22.7739 23.4436 22.7498 23.1781 22.6575C22.9126 22.5653 22.6856 22.4091 22.526 22.2087C22.3663 22.0082 22.2811 21.7726 22.2811 21.5316C22.2815 21.2084 22.4347 20.8987 22.7072 20.6702C22.9796 20.4417 23.3489 20.3132 23.7342 20.3128ZM23.7342 21.9378C23.83 21.9378 23.9236 21.914 24.0033 21.8693C24.083 21.8247 24.145 21.7613 24.1817 21.687C24.2184 21.6128 24.2279 21.5311 24.2093 21.4523C24.1906 21.3735 24.1444 21.3011 24.0767 21.2443C24.009 21.1875 23.9226 21.1488 23.8287 21.1331C23.7347 21.1174 23.6373 21.1255 23.5488 21.1562C23.4603 21.187 23.3847 21.239 23.3314 21.3059C23.2782 21.3727 23.2498 21.4512 23.2498 21.5316C23.25 21.6393 23.301 21.7425 23.3918 21.8187C23.4827 21.8948 23.6058 21.9377 23.7342 21.9378Z" fill="white"/>
<path d="M20.828 19.5003H23.2498V18.6878H20.828V19.5003Z" fill="white"/>
<path d="M24.2186 19.5003H26.6405V18.6878H24.2186V19.5003Z" fill="white"/>
<path d="M21.7967 17.8753H25.6717V17.0628H21.7967V17.8753Z" fill="white"/>
<path d="M19.3748 16.2503H20.8279V15.4378H19.3748V16.2503Z" fill="white"/>
<path d="M19.3748 14.6253H22.2811V13.8128H19.3748V14.6253Z" fill="white"/>
<path d="M21.7967 16.2503H22.7655V15.4378H21.7967V16.2503Z" fill="white"/>
<path d="M25.6717 16.2503H28.0936V15.4378H25.6717V16.2503Z" fill="white"/>
<path d="M26.6404 14.6253H28.0936V13.8128H26.6404V14.6253Z" fill="white"/>
</svg>
