<svg width="32" height="26" viewBox="0 0 32 26" fill="none" xmlns="http://www.w3.org/2000/svg">
<path d="M29.7411 13.611C28.5548 13.4106 26.9478 13.3047 25.0938 13.3047C24.3286 13.3047 23.6063 13.323 22.9375 13.3583V1.39648C22.9375 0.626488 22.1664 0 21.2188 0H1.71875C0.722812 0 0 0.67275 0 1.59961V22.6738C0 23.2257 0.750812 23.8672 1.71875 23.8672H18.1875V24.4512C18.1875 25.3121 19.8876 25.5993 20.4464 25.6937C21.6327 25.8941 23.2397 26 25.0938 26C26.9478 26 28.5548 25.8941 29.7411 25.6937C30.2999 25.5993 32 25.3121 32 24.4512V14.8535C32 13.9926 30.2999 13.7054 29.7411 13.611ZM31.0625 19.6499C31.0528 19.6663 30.8577 19.9462 29.3936 20.1746C28.2824 20.3479 26.7956 20.4395 25.0938 20.4395C23.3919 20.4395 21.9051 20.3479 20.7939 20.1746C19.2937 19.9406 19.1258 19.6523 19.125 19.6523V18.1682C19.6156 18.3549 20.1702 18.4488 20.4464 18.4954C21.6327 18.6958 23.2397 18.8017 25.0938 18.8017C26.9478 18.8017 28.5548 18.6958 29.7411 18.4954C30.0172 18.4488 30.5719 18.3549 31.0625 18.1682V19.6499ZM12.0625 19.7285C11.8036 19.7285 11.5938 19.899 11.5938 20.1094V21.0742H4.46875C4.22444 21.0742 4.0625 20.9116 4.0625 20.8457V17.0625H11.5938V18.332C11.5938 18.5424 11.8036 18.7129 12.0625 18.7129C12.3214 18.7129 12.5312 18.5424 12.5312 18.332V17.0625H18.1875V21.0742H12.5312V20.1094C12.5312 19.899 12.3214 19.7285 12.0625 19.7285ZM20.0625 13.6806C19.3438 13.8238 18.1875 14.1434 18.1875 14.8535V16.3008H12.5312V12.2891H19.6562C19.8803 12.2891 20.0625 12.4371 20.0625 12.6191V13.6806ZM11.5938 16.3008H4.0625V12.7207C4.0625 12.4625 4.22575 12.2891 4.46875 12.2891H11.5938V16.3008ZM31.0625 17.2505C31.0528 17.2668 30.8577 17.5467 29.3936 17.7752C28.2824 17.9485 26.7956 18.0401 25.0938 18.0401C23.3919 18.0401 21.9051 17.9485 20.7939 17.7752C19.2937 17.5412 19.1258 17.2529 19.125 17.2529V15.7687C19.6156 15.9555 20.1702 16.0494 20.4464 16.096C21.6327 16.2964 23.2397 16.4023 25.0938 16.4023C26.9478 16.4023 28.5548 16.2964 29.7411 16.096C30.0172 16.0494 30.5719 15.9555 31.0625 15.7688V17.2505ZM29.3936 14.3313C30.8075 14.5519 31.038 14.8206 31.0609 14.8535C31.038 14.8864 30.8075 15.1552 29.3936 15.3757C28.2824 15.549 26.7956 15.6406 25.0938 15.6406C23.3919 15.6406 21.9051 15.549 20.7939 15.3757C19.38 15.1552 19.1495 14.8864 19.1266 14.8535C19.1495 14.8206 19.38 14.5519 20.7939 14.3313C21.9051 14.158 23.3919 14.0664 25.0938 14.0664C26.7956 14.0664 28.2824 14.158 29.3936 14.3313ZM1.71875 23.1055C1.26737 23.1055 0.9375 22.8026 0.9375 22.6738V10.2578H16.375C16.6339 10.2578 16.8438 10.0873 16.8438 9.87695C16.8438 9.66657 16.6339 9.49609 16.375 9.49609H0.9375V1.59961C0.9375 1.09063 1.24413 0.761719 1.71875 0.761719H21.2188C21.6496 0.761719 22 1.04645 22 1.39648V9.49609H18.5625C18.3036 9.49609 18.0938 9.66657 18.0938 9.87695C18.0938 10.0873 18.3036 10.2578 18.5625 10.2578H22V13.4219C21.6456 13.4519 21.3118 13.4876 21 13.5287V12.6191C21 12.0171 20.3972 11.5273 19.6562 11.5273H4.46875C3.70269 11.5273 3.125 12.0404 3.125 12.7207V20.8457C3.125 21.3732 3.75294 21.8359 4.46875 21.8359H18.1875V23.1055H1.71875ZM29.3936 24.9734C28.2824 25.1467 26.7956 25.2383 25.0938 25.2383C23.3919 25.2383 21.9051 25.1467 20.7939 24.9734C19.2937 24.7394 19.1258 24.4512 19.125 24.4512V22.967C19.6156 23.1537 20.1702 23.2476 20.4464 23.2942C21.6327 23.4946 23.2397 23.6005 25.0938 23.6005C25.9871 23.6005 26.8333 23.5754 27.6087 23.5257C27.8668 23.5092 28.0596 23.3259 28.0392 23.1162C28.0189 22.9065 27.7926 22.7498 27.5352 22.7664C26.7841 22.8144 25.9627 22.8388 25.0938 22.8388C23.3919 22.8388 21.9051 22.7472 20.7939 22.5739C19.2937 22.34 19.1258 22.0518 19.125 22.0518V20.5676C19.6156 20.7543 20.1702 20.8482 20.4464 20.8948C21.6327 21.0952 23.2397 21.2011 25.0938 21.2011C26.9478 21.2011 28.5548 21.0952 29.7411 20.8948C30.0172 20.8482 30.5719 20.7543 31.0625 20.5676V22.0493C31.0529 22.0655 30.8803 22.3134 29.6396 22.5331C29.3866 22.5779 29.2263 22.7808 29.2814 22.9863C29.3354 23.1933 29.5927 23.3227 29.8392 23.2773C30.0957 23.2319 30.6035 23.1417 31.0625 22.9673V24.4487C31.0528 24.4651 30.8577 24.7449 29.3936 24.9734Z" fill="white"/>
<path d="M21.0625 7.13477V3.12305C21.0625 2.52104 20.4597 2.03125 19.7188 2.03125H9.375C9.11606 2.03125 8.90625 2.20172 8.90625 2.41211C8.90625 2.6225 9.11606 2.79297 9.375 2.79297H19.7188C19.9428 2.79297 20.125 2.94105 20.125 3.12305V7.13477C20.125 7.31677 19.9428 7.46484 19.7188 7.46484H4.46875C4.24475 7.46484 4.0625 7.31677 4.0625 7.13477V3.12305C4.0625 2.94105 4.24475 2.79297 4.46875 2.79297H7.1875C7.44644 2.79297 7.65625 2.6225 7.65625 2.41211C7.65625 2.20172 7.44644 2.03125 7.1875 2.03125H4.46875C3.72781 2.03125 3.125 2.52104 3.125 3.12305V7.13477C3.125 7.73678 3.72781 8.22656 4.46875 8.22656H19.7188C20.4597 8.22656 21.0625 7.73678 21.0625 7.13477Z" fill="white"/>
<path d="M9.84375 18.6875H6.46875C6.20981 18.6875 6 18.858 6 19.0684C6 19.2787 6.20981 19.4492 6.46875 19.4492H9.84375C10.1027 19.4492 10.3125 19.2787 10.3125 19.0684C10.3125 18.858 10.1027 18.6875 9.84375 18.6875Z" fill="white"/>
<path d="M6.78125 14.6758H7.6875V15.4121C7.6875 15.6225 7.89731 15.793 8.15625 15.793C8.41519 15.793 8.625 15.6225 8.625 15.4121V14.6758H9.53125C9.79019 14.6758 10 14.5053 10 14.2949C10 14.0845 9.79019 13.9141 9.53125 13.9141H8.625V13.1777C8.625 12.9673 8.41519 12.7969 8.15625 12.7969C7.89731 12.7969 7.6875 12.9673 7.6875 13.1777V13.9141H6.78125C6.52231 13.9141 6.3125 14.0845 6.3125 14.2949C6.3125 14.5053 6.52231 14.6758 6.78125 14.6758Z" fill="white"/>
<path d="M17.3038 13.2357C17.1206 13.087 16.8239 13.087 16.6408 13.2357L16 13.7563L15.3592 13.2357C15.1761 13.087 14.8793 13.087 14.6963 13.2357C14.5132 13.3845 14.5132 13.6256 14.6963 13.7743L15.3371 14.295L14.6963 14.8156C14.5132 14.9644 14.5132 15.2055 14.6963 15.3543C14.8794 15.5029 15.1761 15.5029 15.3592 15.3543L16 14.8336L16.6408 15.3543C16.8239 15.5029 17.1206 15.5029 17.3038 15.3543C17.4868 15.2055 17.4868 14.9644 17.3038 14.8156L16.6629 14.295L17.3038 13.7743C17.4868 13.6255 17.4868 13.3844 17.3038 13.2357Z" fill="white"/>
<path d="M14.9466 20.3199C15.0665 20.3199 15.1865 20.2827 15.2781 20.2084L17.4031 18.4818C17.5862 18.333 17.5862 18.0919 17.4031 17.9432C17.22 17.7945 16.9232 17.7945 16.7402 17.9432L14.6152 19.6697C14.4321 19.8185 14.4321 20.0596 14.6152 20.2084C14.7067 20.2827 14.8267 20.3199 14.9466 20.3199Z" fill="white"/>
<path d="M15.0938 18.4844C15.3526 18.4844 15.5625 18.3139 15.5625 18.1035C15.5625 17.8932 15.3526 17.7227 15.0938 17.7227C14.8349 17.7227 14.625 17.8932 14.625 18.1035C14.625 18.3139 14.8349 18.4844 15.0938 18.4844Z" fill="white"/>
<path d="M16.9688 20.4141C17.2276 20.4141 17.4375 20.2435 17.4375 20.0332C17.4375 19.8229 17.2276 19.6523 16.9688 19.6523C16.7099 19.6523 16.5 19.8229 16.5 20.0332C16.5 20.2435 16.7099 20.4141 16.9688 20.4141Z" fill="white"/>
<path d="M18.1562 6.75391C18.7593 6.75391 19.25 6.35522 19.25 5.86523V4.39258C19.25 3.90259 18.7593 3.50391 18.1562 3.50391H17.2812C16.6782 3.50391 16.1875 3.90259 16.1875 4.39258V5.86523C16.1875 6.35522 16.6782 6.75391 17.2812 6.75391H18.1562ZM17.125 5.86523V4.39258C17.125 4.32255 17.1951 4.26562 17.2812 4.26562H18.1562C18.2424 4.26562 18.3125 4.32255 18.3125 4.39258V5.86523C18.3125 5.93526 18.2424 5.99219 18.1562 5.99219H17.2812C17.1951 5.99219 17.125 5.93526 17.125 5.86523Z" fill="white"/>
</svg>
